<svg width="14" height="17" viewBox="0 0 14 17" fill="none" xmlns="http://www.w3.org/2000/svg">
<path d="M13.0729 5.5214C12.9799 5.5937 11.3481 6.5129 11.3481 8.5578C11.3481 10.9229 13.424 11.7595 13.486 11.7801C13.4757 11.8317 13.1555 12.9265 12.3912 14.0419C11.7096 15.0231 10.9969 16.0042 9.91251 16.0042C8.82811 16.0042 8.54921 15.3742 7.29951 15.3742C6.08081 15.3742 5.64701 16.0249 4.65551 16.0249C3.66401 16.0249 2.97201 15.116 2.17681 14.0006C1.25761 12.6889 0.514008 10.6543 0.514008 8.723C0.514008 5.6246 2.52801 3.9824 4.51091 3.9824C5.56441 3.9824 6.44221 4.6744 7.10321 4.6744C7.73321 4.6744 8.71441 3.9411 9.91241 3.9411C10.3669 3.9412 11.9988 3.9826 13.0729 5.5214ZM9.34451 2.6296C9.84021 2.0409 10.1914 1.225 10.1914 0.4091C10.1914 0.2955 10.1811 0.1819 10.1604 0.0888996C9.35481 0.1199 8.39431 0.626 7.81591 1.2973C7.36151 1.8137 6.93801 2.6296 6.93801 3.4559C6.93801 3.5798 6.95871 3.7038 6.96901 3.7451C7.02061 3.7554 7.10331 3.7658 7.18591 3.7658C7.90891 3.7657 8.81771 3.2803 9.34451 2.6296Z" fill="white"/>
</svg>
