<svg width="14" height="15" viewBox="0 0 14 15" fill="none" xmlns="http://www.w3.org/2000/svg">
<path d="M13.1988 13.343L9.69879 9.843C10.5805 8.76317 11.0136 7.38588 10.9087 5.99576C10.8038 4.60565 10.1688 3.30898 9.135 2.37374C8.1012 1.43849 6.7476 0.936167 5.35396 0.970575C3.96031 1.00498 2.63315 1.57349 1.64677 2.55861C0.660378 3.54374 0.0901594 4.87016 0.053959 6.26376C0.0177586 7.65736 0.518343 9.0116 1.45226 10.0466C2.38617 11.0816 3.68202 11.7183 5.072 11.825C6.46198 11.9317 7.83983 11.5003 8.92079 10.62L12.4208 14.12C12.4719 14.1711 12.5325 14.2116 12.5993 14.2393C12.666 14.2669 12.7375 14.2811 12.8098 14.2811C12.882 14.2811 12.9536 14.2669 13.0203 14.2393C13.0871 14.2116 13.1477 14.1711 13.1988 14.12C13.2499 14.0689 13.2904 14.0083 13.318 13.9415C13.3457 13.8748 13.3599 13.8032 13.3599 13.731C13.3599 13.6588 13.3457 13.5872 13.318 13.5205C13.2904 13.4537 13.2499 13.3931 13.1988 13.342V13.343ZM1.17779 6.418C1.17799 5.56382 1.43146 4.72889 1.90616 4.01876C2.38086 3.30864 3.05546 2.75522 3.84467 2.42848C4.63388 2.10174 5.50226 2.01635 6.34 2.18311C7.17774 2.34987 7.94721 2.7613 8.55114 3.36536C9.15506 3.96942 9.56631 4.739 9.73287 5.57677C9.89944 6.41455 9.81385 7.28291 9.48693 8.07204C9.16 8.86118 8.60643 9.53565 7.89619 10.0102C7.18596 10.4847 6.35096 10.738 5.49679 10.738C4.35147 10.7369 3.25338 10.2814 2.44361 9.47147C1.63384 8.66151 1.17858 7.56332 1.17779 6.418Z" fill="white"/>
</svg>
